<svg width="138" height="61" viewBox="0 0 138 61" fill="none" xmlns="http://www.w3.org/2000/svg">
<g filter="url(#filter0_d_454_7561)">
<path d="M4 30.5C4 24.4557 4 21.4335 4.64802 18.9502C6.47579 11.9458 11.9458 6.47579 18.9502 4.64802C21.4335 4 24.4557 4 30.5 4H134V25C134 36.201 134 41.8016 131.82 46.0798C129.903 49.8431 126.843 52.9027 123.08 54.8201C118.802 57 113.201 57 102 57H30.5C24.4557 57 21.4335 57 18.9502 56.352C11.9458 54.5242 6.47579 49.0542 4.64802 42.0498C4 39.5665 4 36.5443 4 30.5Z" fill="#2A3647"/>
<path d="M41.6825 37V25.3636H43.0916V35.75H48.5007V37H41.6825ZM54.0462 37.1818C53.2583 37.1818 52.567 36.9943 51.9723 36.6193C51.3814 36.2443 50.9193 35.7197 50.5859 35.0455C50.2564 34.3712 50.0916 33.5833 50.0916 32.6818C50.0916 31.7727 50.2564 30.9792 50.5859 30.3011C50.9193 29.6231 51.3814 29.0966 51.9723 28.7216C52.567 28.3466 53.2583 28.1591 54.0462 28.1591C54.834 28.1591 55.5234 28.3466 56.1143 28.7216C56.709 29.0966 57.1712 29.6231 57.5007 30.3011C57.834 30.9792 58.0007 31.7727 58.0007 32.6818C58.0007 33.5833 57.834 34.3712 57.5007 35.0455C57.1712 35.7197 56.709 36.2443 56.1143 36.6193C55.5234 36.9943 54.834 37.1818 54.0462 37.1818ZM54.0462 35.9773C54.6446 35.9773 55.1371 35.8239 55.5234 35.517C55.9098 35.2102 56.1958 34.8068 56.3814 34.3068C56.567 33.8068 56.6598 33.2652 56.6598 32.6818C56.6598 32.0985 56.567 31.5549 56.3814 31.0511C56.1958 30.5473 55.9098 30.1402 55.5234 29.8295C55.1371 29.5189 54.6446 29.3636 54.0462 29.3636C53.4477 29.3636 52.9553 29.5189 52.5689 29.8295C52.1825 30.1402 51.8965 30.5473 51.7109 31.0511C51.5253 31.5549 51.4325 32.0985 51.4325 32.6818C51.4325 33.2652 51.5253 33.8068 51.7109 34.3068C51.8965 34.8068 52.1825 35.2102 52.5689 35.517C52.9553 35.8239 53.4477 35.9773 54.0462 35.9773ZM63.5703 40.4545C62.9226 40.4545 62.3658 40.3712 61.8999 40.2045C61.4339 40.0417 61.0457 39.8258 60.7351 39.5568C60.4283 39.2917 60.1839 39.0076 60.0021 38.7045L61.0703 37.9545C61.1915 38.1136 61.3449 38.2955 61.5305 38.5C61.7161 38.7083 61.9699 38.8883 62.2919 39.0398C62.6177 39.1951 63.0438 39.2727 63.5703 39.2727C64.2749 39.2727 64.8563 39.1023 65.3146 38.7614C65.773 38.4205 66.0021 37.8864 66.0021 37.1591V35.3864H65.8885C65.79 35.5455 65.6499 35.7424 65.468 35.9773C65.29 36.2083 65.0324 36.4148 64.6953 36.5966C64.362 36.7746 63.9112 36.8636 63.343 36.8636C62.6385 36.8636 62.0059 36.697 61.4453 36.3636C60.8885 36.0303 60.4472 35.5455 60.1214 34.9091C59.7995 34.2727 59.6385 33.5 59.6385 32.5909C59.6385 31.697 59.7957 30.9186 60.1101 30.2557C60.4245 29.589 60.862 29.0739 61.4226 28.7102C61.9832 28.3428 62.6309 28.1591 63.3658 28.1591C63.9339 28.1591 64.3847 28.2538 64.718 28.4432C65.0552 28.6288 65.3127 28.8409 65.4908 29.0795C65.6726 29.3144 65.8127 29.5076 65.9112 29.6591H66.0476V28.2727H67.343V37.25C67.343 38 67.1726 38.6098 66.8317 39.0795C66.4946 39.553 66.04 39.8996 65.468 40.1193C64.8999 40.3428 64.2673 40.4545 63.5703 40.4545ZM63.5249 35.6591C64.0627 35.6591 64.5173 35.536 64.8885 35.2898C65.2597 35.0436 65.5419 34.6894 65.7351 34.2273C65.9283 33.7652 66.0249 33.2121 66.0249 32.5682C66.0249 31.9394 65.9302 31.3845 65.7408 30.9034C65.5514 30.4223 65.2711 30.0455 64.8999 29.7727C64.5286 29.5 64.0703 29.3636 63.5249 29.3636C62.9567 29.3636 62.4832 29.5076 62.1044 29.7955C61.7294 30.0833 61.4472 30.4697 61.2578 30.9545C61.0722 31.4394 60.9794 31.9773 60.9794 32.5682C60.9794 33.1742 61.0741 33.7102 61.2635 34.1761C61.4567 34.6383 61.7408 35.0019 62.1158 35.267C62.4946 35.5284 62.9643 35.6591 63.5249 35.6591ZM77.843 37.1818C77.0552 37.1818 76.3639 36.9943 75.7692 36.6193C75.1783 36.2443 74.7161 35.7197 74.3828 35.0455C74.0533 34.3712 73.8885 33.5833 73.8885 32.6818C73.8885 31.7727 74.0533 30.9792 74.3828 30.3011C74.7161 29.6231 75.1783 29.0966 75.7692 28.7216C76.3639 28.3466 77.0552 28.1591 77.843 28.1591C78.6309 28.1591 79.3203 28.3466 79.9112 28.7216C80.5059 29.0966 80.968 29.6231 81.2976 30.3011C81.6309 30.9792 81.7976 31.7727 81.7976 32.6818C81.7976 33.5833 81.6309 34.3712 81.2976 35.0455C80.968 35.7197 80.5059 36.2443 79.9112 36.6193C79.3203 36.9943 78.6309 37.1818 77.843 37.1818ZM77.843 35.9773C78.4415 35.9773 78.9339 35.8239 79.3203 35.517C79.7067 35.2102 79.9927 34.8068 80.1783 34.3068C80.3639 33.8068 80.4567 33.2652 80.4567 32.6818C80.4567 32.0985 80.3639 31.5549 80.1783 31.0511C79.9927 30.5473 79.7067 30.1402 79.3203 29.8295C78.9339 29.5189 78.4415 29.3636 77.843 29.3636C77.2446 29.3636 76.7521 29.5189 76.3658 29.8295C75.9794 30.1402 75.6934 30.5473 75.5078 31.0511C75.3222 31.5549 75.2294 32.0985 75.2294 32.6818C75.2294 33.2652 75.3222 33.8068 75.5078 34.3068C75.6934 34.8068 75.9794 35.2102 76.3658 35.517C76.7521 35.8239 77.2446 35.9773 77.843 35.9773ZM89.3445 33.4318V28.2727H90.6854V37H89.3445V35.5227H89.2536C89.049 35.9659 88.7308 36.3428 88.299 36.6534C87.8672 36.9602 87.3217 37.1136 86.6626 37.1136C86.1172 37.1136 85.6323 36.9943 85.2081 36.7557C84.7839 36.5133 84.4505 36.1496 84.2081 35.6648C83.9657 35.1761 83.8445 34.5606 83.8445 33.8182V28.2727H85.1854V33.7273C85.1854 34.3636 85.3634 34.8712 85.7195 35.25C86.0793 35.6288 86.5376 35.8182 87.0945 35.8182C87.4278 35.8182 87.7668 35.733 88.1115 35.5625C88.46 35.392 88.7517 35.1307 88.9865 34.7784C89.2251 34.4261 89.3445 33.9773 89.3445 33.4318ZM96.9368 28.2727V29.4091H92.4141V28.2727H96.9368ZM93.7322 26.1818H95.0732V34.5C95.0732 34.8788 95.1281 35.1629 95.2379 35.3523C95.3516 35.5379 95.4955 35.6629 95.6697 35.7273C95.8478 35.7879 96.0353 35.8182 96.2322 35.8182C96.38 35.8182 96.5012 35.8106 96.5959 35.7955C96.6906 35.7765 96.7663 35.7614 96.8232 35.75L97.0959 36.9545C97.005 36.9886 96.8781 37.0227 96.7152 37.0568C96.5523 37.0947 96.3459 37.1136 96.0959 37.1136C95.7171 37.1136 95.3459 37.0322 94.9822 36.8693C94.6224 36.7064 94.3232 36.4583 94.0845 36.125C93.8497 35.7917 93.7322 35.3712 93.7322 34.8636V26.1818Z" fill="#CDCDCD"/>
</g>
<defs>
<filter id="filter0_d_454_7561" x="0" y="0" width="138" height="61" filterUnits="userSpaceOnUse" color-interpolation-filters="sRGB">
<feFlood flood-opacity="0" result="BackgroundImageFix"/>
<feColorMatrix in="SourceAlpha" type="matrix" values="0 0 0 0 0 0 0 0 0 0 0 0 0 0 0 0 0 0 127 0" result="hardAlpha"/>
<feOffset/>
<feGaussianBlur stdDeviation="2"/>
<feColorMatrix type="matrix" values="0 0 0 0 0 0 0 0 0 0 0 0 0 0 0 0 0 0 0.1 0"/>
<feBlend mode="normal" in2="BackgroundImageFix" result="effect1_dropShadow_454_7561"/>
<feBlend mode="normal" in="SourceGraphic" in2="effect1_dropShadow_454_7561" result="shape"/>
</filter>
</defs>
</svg>
